<?xml version="1.0" encoding="UTF-8"?>
<svg version="1.1" xmlns="http://www.w3.org/2000/svg" width="102" height="102">
<path d="M0 0 C2.48153111 0.01071936 4.96233851 0.00005805 7.44384766 -0.01269531 C20.79791401 -0.02583751 31.18983351 0.55171039 41.67431641 9.57324219 C49.08737566 18.18841916 51.29895825 26.05841398 51.28759766 37.25292969 C51.29188278 38.19830597 51.29616791 39.14368225 51.30058289 40.1177063 C51.30630321 42.10954999 51.30684347 44.10141457 51.30249023 46.09326172 C51.29933334 49.11950809 51.32280792 52.14477286 51.34814453 55.17089844 C51.35041826 57.11490763 51.35112068 59.05891943 51.35009766 61.00292969 C51.3593074 61.89696503 51.36851715 62.79100037 51.37800598 63.71212769 C51.30327966 74.00116298 48.19920897 81.8676924 40.98681641 89.26074219 C32.99124854 95.76843916 25.86926472 97.57267959 15.72509766 97.59667969 C14.73865768 97.60333649 13.75221771 97.60999329 12.73588562 97.61685181 C10.65231177 97.62695271 8.56870573 97.63166962 6.48510742 97.63134766 C3.32691863 97.63570411 0.1701474 97.67200552 -2.98779297 97.70996094 C-15.76604647 97.78215124 -27.40897183 97.77021569 -37.22412109 88.45996094 C-42.33771984 82.1740306 -46.095362 74.28606934 -46.17431641 66.10986328 C-46.18392395 65.30157074 -46.19353149 64.4932782 -46.20343018 63.66049194 C-46.20980499 62.36046738 -46.20980499 62.36046738 -46.21630859 61.03417969 C-46.22200867 60.13132233 -46.22770874 59.22846497 -46.23358154 58.29824829 C-46.24302023 56.38683234 -46.24956103 54.4754002 -46.25341797 52.56396484 C-46.26307928 49.66702071 -46.29409496 46.77079985 -46.32568359 43.87402344 C-46.33221881 42.01074637 -46.33746724 40.14746426 -46.34130859 38.28417969 C-46.3536554 37.42964203 -46.3660022 36.57510437 -46.37872314 35.69467163 C-46.3432063 25.9050149 -43.6973898 16.59706607 -37.01318359 9.26074219 C-25.69900385 -0.06100339 -13.9792019 -0.07184409 0 0 Z " fill="#ED7515" transform="translate(48.01318359375,1.7392578125)"/>
<path d="M0 0 C1.14825256 -0.00430527 1.14825256 -0.00430527 2.31970215 -0.00869751 C3.93693787 -0.0107375 5.5541983 -0.00521213 7.17138672 0.00732422 C9.64737091 0.02337992 12.12172285 0.00747453 14.59765625 -0.01171875 C16.16927444 -0.00973631 17.74089161 -0.0058926 19.3125 0 C20.05318726 -0.00607269 20.79387451 -0.01214539 21.55700684 -0.0184021 C26.64311697 0.05122087 26.64311697 0.05122087 29.12695312 1.73193359 C30.72481644 4.31898648 30.47110659 6.43878555 30.15625 9.3984375 C29.49625 10.0584375 28.83625 10.7184375 28.15625 11.3984375 C28.15625 12.3884375 28.15625 13.3784375 28.15625 14.3984375 C28.94128906 13.52058594 29.72632813 12.64273438 30.53515625 11.73828125 C31.59525106 10.60313548 32.6565109 9.46907694 33.71875 8.3359375 C34.23244141 7.75521484 34.74613281 7.17449219 35.27539062 6.57617188 C36.84053864 4.93325253 38.21906087 3.58452835 40.15625 2.3984375 C44.05859375 2.52734375 44.05859375 2.52734375 47.15625 3.3984375 C47.90625 6.0859375 47.90625 6.0859375 48.15625 9.3984375 C46.34375 12.2734375 46.34375 12.2734375 44.15625 14.3984375 C43.49625 14.3984375 42.83625 14.3984375 42.15625 14.3984375 C41.888125 14.9965625 41.62 15.5946875 41.34375 16.2109375 C40.15707594 18.39691604 39.06025887 19.81176344 37.15625 21.3984375 C36.49625 21.3984375 35.83625 21.3984375 35.15625 21.3984375 C34.38840313 23.21933586 34.38840313 23.21933586 34.15625 25.3984375 C35.2731508 27.20594605 35.2731508 27.20594605 37.05078125 28.78125 C37.67662109 29.39097656 38.30246094 30.00070313 38.94726562 30.62890625 C39.94790039 31.56669922 39.94790039 31.56669922 40.96875 32.5234375 C41.62423828 33.15636719 42.27972656 33.78929687 42.95507812 34.44140625 C44.17392552 35.61658972 45.39781733 36.78657848 46.62817383 37.94970703 C47.8216223 39.08118542 48.9933737 40.2355612 50.15625 41.3984375 C50.07883443 45.57887834 49.75126122 47.71842468 46.96875 50.8984375 C44.15625 52.3984375 44.15625 52.3984375 41.09375 52.3359375 C38.16869963 51.40241079 36.36192271 50.51927664 34.15625 48.3984375 C34.15625 47.7384375 34.15625 47.0784375 34.15625 46.3984375 C33.49625 46.3984375 32.83625 46.3984375 32.15625 46.3984375 C30.53125 45.0234375 30.53125 45.0234375 29.15625 43.3984375 C29.15625 42.7384375 29.15625 42.0784375 29.15625 41.3984375 C28.16625 41.3984375 27.17625 41.3984375 26.15625 41.3984375 C24.2312853 39.57649908 22.78089469 37.50608467 21.15625 35.3984375 C20.16625 35.8934375 20.16625 35.8934375 19.15625 36.3984375 C19.27806641 37.26855469 19.27806641 37.26855469 19.40234375 38.15625 C19.68766059 41.68486232 19.81960039 44.32831564 17.9140625 47.40234375 C16.04695282 49.25654714 14.59548186 50.39534758 12.15625 51.3984375 C8.93159479 51.29128915 6.1652625 50.53108166 3.15625 49.3984375 C2.02828602 45.79207517 2.04208965 42.42699746 2.05859375 38.6640625 C2.06181641 37.36855469 2.06503906 36.07304688 2.06835938 34.73828125 C2.07671402 33.37499933 2.08517896 32.01171808 2.09375 30.6484375 C2.09876832 29.26953285 2.10333065 27.89062646 2.10742188 26.51171875 C2.11920907 23.14058091 2.13566365 19.76953122 2.15625 16.3984375 C-0.82226562 16.49609375 -0.82226562 16.49609375 -3.80078125 16.59375 C-5.84375 16.3984375 -5.84375 16.3984375 -8.84375 14.3984375 C-11.59012221 10.27887919 -11.47400284 8.28289703 -10.84375 3.3984375 C-8.37181009 -0.6793358 -4.2735415 -0.0350376 0 0 Z " fill="#C9690A" transform="translate(31.84375,26.6015625)"/>
<path d="M0 0 C1.57599976 0.37439209 1.57599976 0.37439209 3.18383789 0.75634766 C3.93383789 3.44384766 3.93383789 3.44384766 4.18383789 6.75634766 C2.37133789 9.63134766 2.37133789 9.63134766 0.18383789 11.75634766 C-0.47616211 11.75634766 -1.13616211 11.75634766 -1.81616211 11.75634766 C-2.08428711 12.35447266 -2.35241211 12.95259766 -2.62866211 13.56884766 C-3.81533617 15.75482619 -4.91215324 17.16967359 -6.81616211 18.75634766 C-7.47616211 18.75634766 -8.13616211 18.75634766 -8.81616211 18.75634766 C-9.56546857 20.59526827 -9.56546857 20.59526827 -9.81616211 22.75634766 C-8.77801838 24.40323719 -8.77801838 24.40323719 -7.10522461 25.77978516 C-6.51999023 26.32634766 -5.93475586 26.87291016 -5.33178711 27.43603516 C-4.07958401 28.55887843 -2.82698498 29.68128032 -1.57397461 30.80322266 C1.36683104 33.55055425 2.99319638 35.11784989 4.16821289 39.05322266 C4.18383789 41.75634766 4.18383789 41.75634766 3.05883789 43.63134766 C0.51867486 45.15544547 -0.87863156 45.12016902 -3.81616211 44.75634766 C-6.21972656 42.99975586 -6.21972656 42.99975586 -8.67944336 40.55712891 C-10.00878906 39.23745117 -10.00878906 39.23745117 -11.36499023 37.89111328 C-12.27700195 36.95976563 -13.18901367 36.02841797 -14.12866211 35.06884766 C-15.52568359 33.70083008 -15.52568359 33.70083008 -16.95092773 32.30517578 C-17.83071289 31.41894531 -18.71049805 30.53271484 -19.61694336 29.61962891 C-20.42301025 28.80792236 -21.22907715 27.99621582 -22.05957031 27.15991211 C-23.81616211 24.75634766 -23.81616211 24.75634766 -24.33666992 22.25854492 C-23.20794986 16.83253558 -18.05243475 13.15622864 -14.25366211 9.38134766 C-13.3584082 8.44162109 -12.4631543 7.50189453 -11.54077148 6.53369141 C-10.66098633 5.65068359 -9.78120117 4.76767578 -8.87475586 3.85791016 C-8.07352295 3.04660645 -7.27229004 2.23530273 -6.44677734 1.39941406 C-3.81616211 -0.24365234 -3.81616211 -0.24365234 0 0 Z " fill="#E7E6E4" transform="translate(75.816162109375,29.24365234375)"/>
<path d="M0 0 C1.14825256 -0.00430527 1.14825256 -0.00430527 2.31970215 -0.00869751 C3.93693787 -0.0107375 5.5541983 -0.00521213 7.17138672 0.00732422 C9.64737091 0.02337992 12.12172285 0.00747453 14.59765625 -0.01171875 C16.16927444 -0.00973631 17.74089161 -0.0058926 19.3125 0 C20.05318726 -0.00607269 20.79387451 -0.01214539 21.55700684 -0.0184021 C26.64568148 0.05125598 26.64568148 0.05125598 29.12304688 1.73583984 C30.75353381 4.35956764 30.5320573 6.39197907 30.15625 9.3984375 C28.98046875 11.06640625 28.98046875 11.06640625 27.15625 12.3984375 C24.52734375 12.76171875 24.52734375 12.76171875 21.59375 12.7109375 C20.13775391 12.70513672 20.13775391 12.70513672 18.65234375 12.69921875 C16.15625 12.3984375 16.15625 12.3984375 14.15625 10.3984375 C12.0163868 10.0800535 12.0163868 10.0800535 9.65625 10.1484375 C8.8621875 10.14328125 8.068125 10.138125 7.25 10.1328125 C4.93732249 10.20903841 4.93732249 10.20903841 3.15625 12.3984375 C0.66015625 12.734375 0.66015625 12.734375 -2.28125 12.7734375 C-3.73337891 12.81597656 -3.73337891 12.81597656 -5.21484375 12.859375 C-7.84375 12.3984375 -7.84375 12.3984375 -9.66796875 10.53515625 C-11.12317578 7.8906438 -11.30164081 6.37472778 -10.84375 3.3984375 C-8.28152198 -0.6374349 -4.30184718 -0.03526967 0 0 Z " fill="#F7F6F5" transform="translate(31.84375,26.6015625)"/>
<path d="M0 0 C3.5 0.4375 3.5 0.4375 5.19165039 1.58618164 C8.12605734 5.73837569 6.96535173 11.98575517 6.9375 16.875 C6.95748047 18.11572266 6.97746094 19.35644531 6.99804688 20.63476562 C6.99740234 21.82650391 6.99675781 23.01824219 6.99609375 24.24609375 C6.99794678 25.33720459 6.9997998 26.42831543 7.00170898 27.55249023 C6.38501142 31.09872629 5.35676427 32.30453113 2.5 34.4375 C-0.5625 34.4375 -0.5625 34.4375 -3.5 33.4375 C-6.53534385 30.31727017 -6.8839737 27.99727847 -6.8984375 23.71875 C-6.90230469 22.62175781 -6.90617187 21.52476563 -6.91015625 20.39453125 C-6.89855469 19.25371094 -6.88695312 18.11289062 -6.875 16.9375 C-6.88660156 15.79667969 -6.89820313 14.65585937 -6.91015625 13.48046875 C-6.90628906 12.38347656 -6.90242188 11.28648438 -6.8984375 10.15625 C-6.89505371 9.15529297 -6.89166992 8.15433594 -6.88818359 7.12304688 C-6.19962935 2.35946405 -4.78556181 0.59819523 0 0 Z " fill="#E3E0DC" transform="translate(41.5,37.5625)"/>
<path d="M0 0 C1.485 0.99 1.485 0.99 3 2 C5.67499293 2.31712276 5.67499293 2.31712276 8.5625 2.25 C10.01849609 2.25773437 10.01849609 2.25773437 11.50390625 2.265625 C14.17292937 2.24594496 14.17292937 2.24594496 16 0 C18.09375 -0.265625 18.09375 -0.265625 20.5 -0.25 C21.2940625 -0.25515625 22.088125 -0.2603125 22.90625 -0.265625 C25 0 25 0 27 2 C29.66242821 2.46290221 29.66242821 2.46290221 32.625 2.625 C34.12933594 2.73714844 34.12933594 2.73714844 35.6640625 2.8515625 C36.43492188 2.90054688 37.20578125 2.94953125 38 3 C38 3.99 38 4.98 38 6 C34.7 6 31.4 6 28 6 C28 14.25 28 22.5 28 31 C27.67 31 27.34 31 27 31 C26.98018066 30.22285645 26.96036133 29.44571289 26.93994141 28.64501953 C26.84492991 25.13799309 26.73515441 21.63158206 26.625 18.125 C26.5940625 16.90167969 26.563125 15.67835937 26.53125 14.41796875 C26.49257813 13.25136719 26.45390625 12.08476563 26.4140625 10.8828125 C26.3826416 9.80402832 26.3512207 8.72524414 26.31884766 7.61376953 C26.25323678 4.84238346 26.25323678 4.84238346 24 3 C20.5 2.66666667 20.5 2.66666667 17 3 C16.34 3.66 15.68 4.32 15 5 C12.50390625 5.23046875 12.50390625 5.23046875 9.5625 5.1875 C8.11037109 5.17783203 8.11037109 5.17783203 6.62890625 5.16796875 C4 5 4 5 1 4 C0.3125 1.9375 0.3125 1.9375 0 0 Z " fill="#8E5F1C" transform="translate(21,36)"/>
<path d="M0 0 C0.66 0 1.32 0 2 0 C2.46291314 5.78641419 1.65449013 8.502166 -2 13 C-3.80045953 14.87121995 -5.62978014 16.69512288 -7.51171875 18.484375 C-9.10278722 19.94925826 -9.10278722 19.94925826 -10 22 C-11.32 21.34 -12.64 20.68 -14 20 C-14 17 -14 17 -11.8125 14.625 C-10.02360205 12.95536191 -8.23220966 11.28838944 -6.4375 9.625 C-3.62024456 6.5910326 -1.932112 3.64954489 0 0 Z " fill="#BB6308" transform="translate(80,33)"/>
<path d="M0 0 C4.29 0.33 8.58 0.66 13 1 C12.95359375 2.83046875 12.9071875 4.6609375 12.859375 6.546875 C12.82185898 8.94790037 12.78545864 11.34894336 12.75 13.75 C12.71648438 14.9565625 12.68296875 16.163125 12.6484375 17.40625 C12.63554688 18.56640625 12.62265625 19.7265625 12.609375 20.921875 C12.58842773 21.99018555 12.56748047 23.05849609 12.54589844 24.15917969 C13.10993916 27.68776992 14.17983599 28.87101473 17 31 C20.52324572 30.82813436 22.02591724 29.98272184 25 28 C24.01 31.465 24.01 31.465 23 35 C21.37581255 35.08090971 19.75048255 35.13914995 18.125 35.1875 C17.22007813 35.22230469 16.31515625 35.25710937 15.3828125 35.29296875 C14.20332031 35.14794922 14.20332031 35.14794922 13 35 C10.57795962 31.36693942 10.76697109 29.68180977 10.8046875 25.36328125 C10.81435547 23.41518555 10.81435547 23.41518555 10.82421875 21.42773438 C10.8409294 20.05598693 10.85785929 18.68424214 10.875 17.3125 C10.88503326 15.92904282 10.89415851 14.54557873 10.90234375 13.16210938 C10.92595033 9.77456548 10.95887963 6.38736928 11 3 C9.741875 3.061875 8.48375 3.12375 7.1875 3.1875 C5.04296875 3.29296875 5.04296875 3.29296875 3 3 C2.01 2.01 1.02 1.02 0 0 Z " fill="#C16B06" transform="translate(23,40)"/>
<path d="M0 0 C0.66 0.33 1.32 0.66 2 1 C1.9175 2.2375 1.835 3.475 1.75 4.75 C1.77122485 7.74801006 1.88609405 8.81490282 3.5 11.4375 C6.65190459 13.65121982 6.65190459 13.65121982 14 14 C14 22.91 14 31.82 14 41 C13.67 41 13.34 41 13 41 C13 32.75 13 24.5 13 16 C11.68 16.33 10.36 16.66 9 17 C6.645752 16.411438 4.30657014 15.75407101 2 15 C1.67 13.35 1.34 11.7 1 10 C0.34 10 -0.32 10 -1 10 C-2.15837626 5.94568308 -1.83691257 3.78187881 0 0 Z " fill="#DB7308" transform="translate(20,29)"/>
<path d="M0 0 C0.24459961 0.5669458 0.48919922 1.1338916 0.74121094 1.71801758 C3.3159744 6.38565025 7.51973523 9.93214377 11.25 13.6875 C12.09691406 14.56728516 12.94382812 15.44707031 13.81640625 16.35351562 C14.64527344 17.18947266 15.47414063 18.02542969 16.328125 18.88671875 C17.0799707 19.65201904 17.83181641 20.41731934 18.60644531 21.20581055 C21.42682435 23.31994412 23.52684552 23.68844314 27 24 C26.67 24.66 26.34 25.32 26 26 C20.74627874 26.07042522 18.30085675 24.75664241 14.4140625 21.2109375 C12.80195505 19.61471288 11.20595894 18.00208091 9.625 16.375 C8.80644531 15.57964844 7.98789062 14.78429687 7.14453125 13.96484375 C0.60357806 7.35880645 0.60357806 7.35880645 -0.0390625 2.9140625 C-0.02617188 1.95242187 -0.01328125 0.99078125 0 0 Z " fill="#9D6622" transform="translate(51,50)"/>
<path d="M0 0 C0.66 0.33 1.32 0.66 2 1 C2.55754226 4.98244471 2.93961198 8.48421086 0.7578125 12.00390625 C-1.10929718 13.85810964 -2.56076814 14.99691008 -5 16 C-8.22465521 15.89285165 -10.9909875 15.13264416 -14 14 C-13.67 13.01 -13.34 12.02 -13 11 C-13 11.66 -13 12.32 -13 13 C-9.7 13 -6.4 13 -3 13 C-2.87625 12.34 -2.7525 11.68 -2.625 11 C-1.85479462 7.30301417 -0.93049337 3.65994058 0 0 Z " fill="#DD6600" transform="translate(49,62)"/>
<path d="M0 0 C3.74321017 3.13207382 7.41449348 6.30828967 10.9375 9.6875 C11.52402344 10.24824219 12.11054687 10.80898437 12.71484375 11.38671875 C14 13 14 13 14 16 C12 16 12 16 10.375 14.625 C9 13 9 13 9 11 C8.01 11 7.02 11 6 11 C4.33333333 9 2.66666667 7 1 5 C0.01 5 -0.98 5 -2 5 C-2 4.01 -2 3.02 -2 2 C-1.34 2 -0.68 2 0 2 C0 1.34 0 0.68 0 0 Z " fill="#CD6400" transform="translate(52,57)"/>
<path d="M0 0 C0 0.99 0 1.98 0 3 C-3.3 3 -6.6 3 -10 3 C-10 11.25 -10 19.5 -10 28 C-10.33 28 -10.66 28 -11 28 C-11 19.09 -11 10.18 -11 1 C-2 0 -2 0 0 0 Z " fill="#A96006" transform="translate(59,39)"/>
<path d="M0 0 C1.0828125 1.0209375 1.0828125 1.0209375 2.1875 2.0625 C4.7921256 4.27555191 4.7921256 4.27555191 7.625 3.875 C10.21287957 3.02625324 10.21287957 3.02625324 13 1 C12.34 3.31 11.68 5.62 11 8 C7.7 8 4.4 8 1 8 C0.67 5.36 0.34 2.72 0 0 Z " fill="#AC610C" transform="translate(35,67)"/>
<path d="M0 0 C0.66 0.33 1.32 0.66 2 1 C1.938125 2.19625 1.87625 3.3925 1.8125 4.625 C1.79056063 8.73497595 2.86869566 11.4478261 5 15 C4.01 15 3.02 15 2 15 C1.67 13.35 1.34 11.7 1 10 C0.34 10 -0.32 10 -1 10 C-2.15837626 5.94568308 -1.83691257 3.78187881 0 0 Z " fill="#D57F17" transform="translate(20,29)"/>
<path d="M0 0 C-1.47721422 3.45201639 -3.43794001 5.64961936 -6.125 8.25 C-6.84945313 8.95640625 -7.57390625 9.6628125 -8.3203125 10.390625 C-8.87460938 10.92171875 -9.42890625 11.4528125 -10 12 C-10 7.92699831 -8.41547466 6.22063289 -6 3 C-2.6 0 -2.6 0 0 0 Z " fill="#F4BB75" transform="translate(17,8)"/>
<path d="M0 0 C2.19123057 0.98227577 3.77479648 1.74408691 5.375 3.5625 C7.70402275 5.62278935 9.97538534 5.6639317 13 6 C12.67 6.66 12.34 7.32 12 8 C7.6305794 7.74297526 5.48177009 7.39976667 2.0625 4.5625 C0 2 0 2 0 0 Z " fill="#8F5A16" transform="translate(65,68)"/>
<path d="M0 0 C0.33 0.99 0.66 1.98 1 3 C1.99 3 2.98 3 4 3 C2.50902342 6.7952131 0.24299151 8.61042731 -3 11 C-2.32829194 7.1936543 -1.27253436 3.64793184 0 0 Z " fill="#C27F32" transform="translate(62,31)"/>
<path d="M0 0 C0.66 0 1.32 0 2 0 C2.45732667 5.71658336 1.52273754 8.48649253 -2 13 C-3.23590089 9.29229733 -2.49559869 8.48973028 -1 5 C-0.63128912 3.34080104 -0.28718326 1.6752357 0 0 Z " fill="#DE6701" transform="translate(80,33)"/>
<path d="M0 0 C1.33783753 0.65758116 2.67054244 1.32563747 4 2 C6.35564596 2.44811137 6.35564596 2.44811137 8.75 2.625 C9.54921875 2.69976562 10.3484375 2.77453125 11.171875 2.8515625 C11.77515625 2.90054688 12.3784375 2.94953125 13 3 C13 3.33 13 3.66 13 4 C11.37675914 4.22162329 9.751279 4.42689803 8.125 4.625 C6.76761719 4.79902344 6.76761719 4.79902344 5.3828125 4.9765625 C4.59648438 4.98429687 3.81015625 4.99203125 3 5 C2.34 4.34 1.68 3.68 1 3 C-1.57061311 2.35232207 -1.57061311 2.35232207 -4 2 C-2.25 0.875 -2.25 0.875 0 0 Z " fill="#956F3A" transform="translate(44,36)"/>
</svg>
