<svg width="24" height="25" viewBox="0 0 24 25" fill="none" xmlns="http://www.w3.org/2000/svg">
<path fill-rule="evenodd" clip-rule="evenodd" d="M11.8889 12.7496H11.9209C14.8489 12.7496 17.2299 10.3686 17.2299 7.44062C17.2299 4.51262 14.8489 2.13062 11.9209 2.13062C8.99189 2.13062 6.60989 4.51262 6.60989 7.43762C6.59989 10.3576 8.9669 12.7406 11.8889 12.7496ZM8.03789 7.44062C8.03789 5.29962 9.77989 3.55862 11.9209 3.55862C14.0609 3.55862 15.8019 5.29962 15.8019 7.44062C15.8019 9.58062 14.0609 11.3226 11.9209 11.3226H11.8919C9.75989 11.3146 8.03089 9.57462 8.03789 7.44062Z" fill="#333333"/>
<path fill-rule="evenodd" clip-rule="evenodd" d="M3.99988 18.304C3.99988 22.001 9.96188 22.001 11.9209 22.001C15.3199 22.001 19.8399 21.62 19.8399 18.324C19.8399 14.627 13.8799 14.627 11.9209 14.627C8.52088 14.627 3.99988 15.008 3.99988 18.304ZM5.49988 18.304C5.49988 16.859 7.65988 16.127 11.9209 16.127C16.1809 16.127 18.3399 16.866 18.3399 18.324C18.3399 19.769 16.1809 20.501 11.9209 20.501C7.65988 20.501 5.49988 19.762 5.49988 18.304Z" fill="#333333"/>
</svg>
