<svg id="visual" viewBox="0 0 675 900" width="675" height="900" xmlns="http://www.w3.org/2000/svg" xmlns:xlink="http://www.w3.org/1999/xlink" version="1.1"><path d="M562 900L573 870C584 840 606 780 615.2 720C624.3 660 620.7 600 580.3 540C540 480 463 420 400.5 360C338 300 290 240 289.5 180C289 120 336 60 359.5 30L383 0L675 0L675 30C675 60 675 120 675 180C675 240 675 300 675 360C675 420 675 480 675 540C675 600 675 660 675 720C675 780 675 840 675 870L675 900Z" fill="#B70503" stroke-linecap="round" stroke-linejoin="miter"></path></svg>