<svg id="visual" viewBox="0 0 900 675" width="900" height="675" xmlns="http://www.w3.org/2000/svg" xmlns:xlink="http://www.w3.org/1999/xlink" version="1.1"><path d="M749 675L763.8 652.5C778.7 630 808.3 585 820.7 540C833 495 828 450 774 405C720 360 617 315 533.7 270C450.3 225 386.7 180 386 135C385.3 90 447.7 45 478.8 22.5L510 0L900 0L900 22.5C900 45 900 90 900 135C900 180 900 225 900 270C900 315 900 360 900 405C900 450 900 495 900 540C900 585 900 630 900 652.5L900 675Z" fill="#B70503" stroke-linecap="round" stroke-linejoin="miter"></path></svg>