<svg id="visual" viewBox="0 0 900 450" width="900" height="450" xmlns="http://www.w3.org/2000/svg" xmlns:xlink="http://www.w3.org/1999/xlink" version="1.1"><path d="M749 450L763.8 435C778.7 420 808.3 390 820.7 360C833 330 828 300 774 270C720 240 617 210 533.7 180C450.3 150 386.7 120 386 90C385.3 60 447.7 30 478.8 15L510 0L900 0L900 15C900 30 900 60 900 90C900 120 900 150 900 180C900 210 900 240 900 270C900 300 900 330 900 360C900 390 900 420 900 435L900 450Z" fill="#B70503" stroke-linecap="round" stroke-linejoin="miter"></path></svg>