<svg id="visual" viewBox="0 0 900 900" width="900" height="900" xmlns="http://www.w3.org/2000/svg" xmlns:xlink="http://www.w3.org/1999/xlink" version="1.1"><path d="M749 900L763.8 870C778.7 840 808.3 780 820.7 720C833 660 828 600 774 540C720 480 617 420 533.7 360C450.3 300 386.7 240 386 180C385.3 120 447.7 60 478.8 30L510 0L900 0L900 30C900 60 900 120 900 180C900 240 900 300 900 360C900 420 900 480 900 540C900 600 900 660 900 720C900 780 900 840 900 870L900 900Z" fill="#B70503" stroke-linecap="round" stroke-linejoin="miter"></path></svg>