<svg id="visual" viewBox="0 0 900 675" width="900" height="675" xmlns="http://www.w3.org/2000/svg" xmlns:xlink="http://www.w3.org/1999/xlink" version="1.1"><path d="M331 675L345.7 659C360.3 643 389.7 611 437.7 578.8C485.7 546.7 552.3 514.3 577 482.2C601.7 450 584.3 418 553.5 385.8C522.7 353.7 478.3 321.3 513.5 289.2C548.7 257 663.3 225 670 192.8C676.7 160.7 575.3 128.3 532.5 96.2C489.7 64 505.3 32 513.2 16L521 0L900 0L900 16C900 32 900 64 900 96.2C900 128.3 900 160.7 900 192.8C900 225 900 257 900 289.2C900 321.3 900 353.7 900 385.8C900 418 900 450 900 482.2C900 514.3 900 546.7 900 578.8C900 611 900 643 900 659L900 675Z" fill="#B70503" stroke-linecap="round" stroke-linejoin="miter"></path></svg>