<svg id="visual" viewBox="0 0 900 600" width="900" height="600" xmlns="http://www.w3.org/2000/svg" xmlns:xlink="http://www.w3.org/1999/xlink" version="1.1"><path d="M749 600L763.8 580C778.7 560 808.3 520 820.7 480C833 440 828 400 774 360C720 320 617 280 533.7 240C450.3 200 386.7 160 386 120C385.3 80 447.7 40 478.8 20L510 0L900 0L900 20C900 40 900 80 900 120C900 160 900 200 900 240C900 280 900 320 900 360C900 400 900 440 900 480C900 520 900 560 900 580L900 600Z" fill="#B70503" stroke-linecap="round" stroke-linejoin="miter"></path></svg>