<svg id="visual" viewBox="0 0 900 675" width="900" height="675" xmlns="http://www.w3.org/2000/svg" xmlns:xlink="http://www.w3.org/1999/xlink" version="1.1"><path d="M601 675L569 656.3C537 637.7 473 600.3 486.8 562.8C500.7 525.3 592.3 487.7 615.2 450.2C638 412.7 592 375.3 528.7 337.8C465.3 300.3 384.7 262.7 414.3 225C444 187.3 584 149.7 623.2 112.2C662.3 74.7 600.7 37.3 569.8 18.7L539 0L900 0L900 18.7C900 37.3 900 74.7 900 112.2C900 149.7 900 187.3 900 225C900 262.7 900 300.3 900 337.8C900 375.3 900 412.7 900 450.2C900 487.7 900 525.3 900 562.8C900 600.3 900 637.7 900 656.3L900 675Z" fill="#B70503" stroke-linecap="round" stroke-linejoin="miter"></path></svg>